<svg width="22" height="28" viewBox="0.2350006103515625 0.3103446960449219 21.529998779296875 27.379310607910156" fill="none" xmlns="http://www.w3.org/2000/svg">
<path d="M11 27.977C9.86577 27.977 4.4797 21.4664 3.16052 19.3711C1.18941 16.2406 0 14.3502 0 10.7562C0 7.90345 1.15893 5.16758 3.22183 3.15041C5.28473 1.13323 8.08262 0 11 0C13.9174 0 16.7153 1.13323 18.7782 3.15041C20.8411 5.16758 22 7.90345 22 10.7562C22 14.2053 20.8249 16.0688 18.8773 19.1563L18.7424 19.3711C17.3834 21.5253 12.1118 27.977 11 27.977ZM11 5.37858C9.9121 5.37858 8.84864 5.69403 7.94408 6.28503C7.03953 6.87604 6.33451 7.71606 5.91819 8.69886C5.50187 9.68167 5.39294 10.7631 5.60518 11.8065C5.81742 12.8498 6.34129 13.8082 7.11055 14.5604C7.87981 15.3126 8.85991 15.8249 9.9269 16.0324C10.9939 16.2399 12.0999 16.1334 13.105 15.7263C14.11 15.3192 14.9691 14.6298 15.5735 13.7453C16.1779 12.8608 16.5005 11.8209 16.5005 10.7572C16.4989 9.33116 15.9189 7.96402 14.8877 6.95568C13.8565 5.94734 12.4583 5.38017 11 5.37858Z" fill="#F52D56"/>
</svg>
