<svg width="12" height="12" viewBox="0 0 12 12" fill="none" xmlns="http://www.w3.org/2000/svg">
<path d="M0.335624 0.32947C0.229228 0.433361 0.144821 0.556743 0.0872318 0.692559C0.0296423 0.828375 0 0.973961 0 1.12099C0 1.26802 0.0296423 1.4136 0.0872318 1.54942C0.144821 1.68523 0.229228 1.80862 0.335624 1.91251L4.38143 5.86863L0.335624 9.82084C0.229324 9.92479 0.145002 10.0482 0.0874731 10.184C0.0299439 10.3198 0.000334249 10.4654 0.000334247 10.6124C0.000334245 10.7594 0.0299439 10.9049 0.0874731 11.0407C0.145002 11.1765 0.229324 11.2999 0.335624 11.4039C0.441924 11.5078 0.568121 11.5903 0.707008 11.6465C0.845896 11.7028 0.994755 11.7317 1.14509 11.7317C1.29542 11.7317 1.44428 11.7028 1.58316 11.6465C1.72205 11.5903 1.84825 11.5078 1.95455 11.4039L6.00036 7.44776L10.0422 11.4068C10.1487 11.511 10.2751 11.5936 10.4142 11.6499C10.5534 11.7063 10.7025 11.7353 10.8531 11.7353C11.0037 11.7353 11.1529 11.7063 11.292 11.6499C11.4312 11.5936 11.5576 11.511 11.6641 11.4068C11.7706 11.3027 11.8551 11.179 11.9127 11.043C11.9703 10.9069 12 10.7611 12 10.6138C12 10.4666 11.9703 10.3207 11.9127 10.1847C11.8551 10.0486 11.7706 9.92498 11.6641 9.82084L7.61828 5.86472L11.6641 1.9086C11.8782 1.69828 11.9982 1.4134 11.9975 1.11661C11.9969 0.819827 11.8757 0.535453 11.6606 0.326048C11.4455 0.116643 11.1542 -0.000639177 10.8507 2.62024e-06C10.5471 0.000644417 10.2563 0.119157 10.0422 0.32947L5.99636 4.28559L1.95355 0.32947C1.84732 0.225579 1.7212 0.143167 1.5824 0.086941C1.4436 0.0307146 1.29483 0.00177482 1.14459 0.00177482C0.994344 0.00177482 0.845574 0.0307146 0.706772 0.086941C0.567969 0.143167 0.441852 0.225579 0.335624 0.32947Z" fill="black"/>
</svg>
